HIERARCHY
ROOT ui
{
	 OFFSET 0 0 0
	 CHANNELS 3 XPosition YPosition Z Position
	 EndSite
	 {
	 OFFSET 0 -1 0
	 }
}
ROOT li
{
	 OFFSET 0 0 0
	 CHANNELS 3 XPosition YPosition Z Position
	 EndSite
	 {
	 OFFSET 0 -1 0
	 }
}
ROOT ul
{
	 OFFSET 0 0 0
	 CHANNELS 3 XPosition YPosition Z Position
	 EndSite
	 {
	 OFFSET 0 -1 0
	 }
}
ROOT ll
{
	 OFFSET 0 0 0
	 CHANNELS 3 XPosition YPosition Z Position
	 EndSite
	 {
	 OFFSET 0 -1 0
	 }
}
ROOT tt
{
	 OFFSET 0 0 0
	 CHANNELS 3 XPosition YPosition Z Position
	 EndSite
	 {
	 OFFSET 0 -1 0
	 }
}
ROOT tb
{
	 OFFSET 0 0 0
	 CHANNELS 3 XPosition YPosition Z Position
	 EndSite
	 {
	 OFFSET 0 -1 0
	 }
}
ROOT td
{
	 OFFSET 0 0 0
	 CHANNELS 3 XPosition YPosition Z Position
	 EndSite
	 {
	 OFFSET 0 -1 0
	 }
}
ROOT v
{
	 OFFSET 0 0 0
	 CHANNELS 3 XPosition YPosition Z Position
	 EndSite
	 {
	 OFFSET 0 -1 0
	 }
}
ROOT bn
{
	 OFFSET 0 0 0
	 CHANNELS 3 XPosition YPosition Z Position
	 EndSite
	 {
	 OFFSET 0 -1 0
	 }
}
MOTION
Frames: 13
Frame Time: 0.002
-0.04568450927734375	0.005312636852264404	0		0.5991764526367187	-2.677112548828125	0		-0.9649723510742187	0.16266545104980468	0		-0.35049191284179687	-3.26446484375	0		2.334852783203125	-1.2935528564453125	0		3.46085595703125	-0.1441487274169922	0		4.70697119140625	0.5101323852539063	0		5.95261767578125	0.4428537292480469	0		-0.17565013122558593	5.96415185546875	0		
-0.01357648754119873	-8.280720114707947E-4	0		0.5724256591796875	-2.676574462890625	0		-0.964720458984375	0.16985910034179688	0		-0.38218212890625	-3.259895751953125	0		2.29724609375	-1.2768470458984376	0		3.457958740234375	-0.1508048553466797	0		4.70404150390625	0.502503662109375	0		5.94185205078125	0.4493517150878906	0		-0.17463978576660155	5.96335546875	0		
-0.012475812911987304	-0.001584372043609619	0		0.5855142211914063	-2.684449951171875	0		-0.958680419921875	0.16402328491210938	0		-0.34502447509765627	-3.263064453125	0		2.30650146484375	-1.2666357421875	0		3.482084228515625	-0.14973191833496094	0		4.6791162109375	0.5011517944335937	0		5.94703076171875	0.45669927978515623	0		-0.1565999755859375	5.970404296875	0		
-0.016389999389648437	0.0027546770572662352	0		0.5377443237304688	-2.67260546875	0		-1.0235611572265626	0.17202157592773437	0		-0.4027242431640625	-3.246130615234375	0		2.2717978515625	-1.245896484375	0		3.470453369140625	-0.12022257232666016	0		4.680287109375	0.5145403442382812	0		5.94804931640625	0.4561233825683594	0		-0.15767759704589843	5.97270654296875	0		
0.05361736679077148	0.0063115482330322265	0		0.61078759765625	-2.67106982421875	0		-0.9485242919921875	0.17850050354003907	0		-0.3646997375488281	-3.247224853515625	0		2.29001416015625	-1.225710693359375	0		3.44617919921875	-0.14153948974609376	0		4.6681513671875	0.5071107788085938	0		5.94490625	0.44762548828125	0		-0.17395132446289063	5.963220703125	0		
-0.040552982330322264	0.0017444180250167846	0		0.5468575439453125	-2.658961181640625	0		-0.952681396484375	0.1749113311767578	0		-0.4215074462890625	-3.2252138671875	0		2.26609765625	-1.2100142822265625	0		3.445217529296875	-0.1280762481689453	0		4.6580185546875	0.5066952514648437	0		5.94577734375	0.44711669921875	0		-0.17318963623046876	5.9625908203125	0		
-0.01375526523590088	8.77148985862732E-4	0		0.5746685180664063	-2.6628291015625	0		-0.9518850708007812	0.17431710815429688	0		-0.3816317443847656	-3.224232421875	0		2.222031982421875	-1.200052490234375	0		3.46189599609375	-0.13977056884765626	0		4.65866162109375	0.49319671630859374	0		5.9504794921875	0.4385994567871094	0		-0.17249481201171876	5.96201025390625	0		
-0.03408094787597656	-0.0034167790412902833	0		0.5214965209960938	-2.656748291015625	0		-1.0261656494140625	0.17460812377929688	0		-0.4117966003417969	-3.218421630859375	0		2.21417919921875	-1.163447998046875	0		3.477881103515625	-0.11641287994384765	0		4.66343603515625	0.4986928100585937	0		5.955267578125	0.4451182556152344	0		-0.1718682861328125	5.96148046875	0		
0.04058612823486328	-0.0017130730152130128	0		0.5531787109375	-2.656560302734375	0		-0.9374130859375	0.1841431427001953	0		-0.40199481201171877	-3.20800244140625	0		2.18802294921875	-1.1465958251953126	0		3.4343349609375	-0.1333535919189453	0		4.6640654296875	0.49827606201171876	0		5.94790087890625	0.44480966186523435	0		-0.15717562866210938	5.97284716796875	0		
-0.03570042419433594	0.011718226432800292	0		0.5199520874023438	-2.640599853515625	0		-0.9368504028320312	0.18371144104003906	0		-0.42013873291015624	-3.18521923828125	0		2.206754150390625	-1.1331932373046876	0		3.46013232421875	-0.11301520538330079	0		4.6485576171875	0.4920816650390625	0		5.9564599609375	0.4443654479980469	0		-0.13574470520019533	5.96619189453125	0		
0.04164755249023438	-0.0024997270107269287	0		0.6013795776367188	-2.649857177734375	0		-0.9363554077148437	0.183336669921875	0		-0.4165796813964844	-3.18262255859375	0		2.1646513671875	-1.0980653076171876	0		3.43946533203125	-0.12811613464355467	0		4.64497119140625	0.4848011474609375	0		5.948953125	0.4441427001953125	0		-0.1703561553955078	5.9612119140625	0		
-0.041847213745117184	0.004118954181671143	0		0.5499137573242188	-2.64258837890625	0		-0.9408785400390625	0.18707432556152342	0		-0.3890021057128906	-3.172235595703125	0		2.18330224609375	-1.0795596923828126	0		3.43398876953125	-0.12033486938476562	0		4.6452451171875	0.47052496337890626	0		5.95819482421875	0.4267783813476563	0		-0.16996711730957031	5.960900390625	0		
0.03751234817504883	0.0019906049966812132	0		0.5503048706054687	-2.642840087890625	0		-0.9355487060546875	0.1827589111328125	0		-0.4055846862792969	-3.1703046875	0		2.14207373046875	-1.0443394775390624	0		3.4520986328125	-0.1447668762207031	0		4.64246240234375	0.45633050537109376	0		5.95874462890625	0.442557861328125	0		-0.15352842712402343	5.96946728515625	0		
